<?xml version="1.0" encoding="UTF-8" standalone="no"?><!DOCTYPE svg PUBLIC "-//W3C//DTD SVG 1.1//EN" "http://www.w3.org/Graphics/SVG/1.1/DTD/svg11.dtd"><svg width="100%" height="100%" viewBox="0 0 1091 1212" version="1.1" xmlns="http://www.w3.org/2000/svg" xmlns:xlink="http://www.w3.org/1999/xlink" xml:space="preserve" xmlns:serif="http://www.serif.com/" style="fill-rule:evenodd;clip-rule:evenodd;stroke-linejoin:round;stroke-miterlimit:2;"><path d="M90.141,1120.903l910.369,0l0,-691.5c0,-11.909 -5.766,-23.191 -15.425,-30.175l-417.947,-301.994c-13.044,-9.409 -30.572,-9.409 -43.613,0l-417.956,301.994c-9.65,6.984 -15.428,18.266 -15.428,30.175l0,691.5Zm1000.497,90.131l-1090.638,0l0,-781.631c0,-40.753 19.725,-79.347 52.775,-103.237l417.956,-301.981c44.612,-32.234 104.556,-32.256 149.191,0l417.956,301.981c33.047,23.878 52.759,62.475 52.759,103.237l0,781.631Z" style="fill:#231f20;fill-rule:nonzero;"/><path d="M707.147,623.371l0,166.062l166.053,0c0,-91.713 -74.341,-166.062 -166.053,-166.062" style="fill:#ed1846;fill-rule:nonzero;"/><path d="M462.3,911.853c0,67.616 54.812,122.428 122.419,122.428c67.616,0 122.419,-54.813 122.419,-122.428l0,-122.419l-122.419,0c-67.606,0 -122.419,54.812 -122.419,122.419" style="fill:#ed1846;fill-rule:nonzero;"/><path d="M459.219,375.453l-117.797,0c-68.469,0 -123.969,55.5 -123.969,123.959c0,68.459 55.5,123.959 123.969,123.959l365.716,0c0,-136.919 -111,-247.919 -247.919,-247.919" style="fill:#ed1846;fill-rule:nonzero;"/><path d="M681.116,690.915c0,-22.922 -18.581,-41.512 -41.512,-41.512c-22.931,0 -41.519,18.591 -41.519,41.512c0,22.928 18.588,41.509 41.519,41.509c22.931,0 41.512,-18.581 41.512,-41.509" style="fill:#ed1846;fill-rule:nonzero;"/></svg>