<?xml version="1.0" encoding="UTF-8" standalone="no"?>
<!DOCTYPE svg PUBLIC "-//W3C//DTD SVG 1.1//EN" "http://www.w3.org/Graphics/SVG/1.1/DTD/svg11.dtd">
<svg width="100%" height="100%" viewBox="0 0 6860 2357" version="1.1" xmlns="http://www.w3.org/2000/svg" xmlns:xlink="http://www.w3.org/1999/xlink" xml:space="preserve" xmlns:serif="http://www.serif.com/" style="fill-rule:evenodd;clip-rule:evenodd;stroke-linejoin:round;stroke-miterlimit:2;">
    <g transform="matrix(4.166667,0,0,4.166667,0,-597.383333)">
        <path d="M683.881,520.651L975.199,520.651L975.199,299.371C975.199,295.56 973.354,291.95 970.263,289.715L836.52,193.077C832.346,190.066 826.737,190.066 822.564,193.077L688.818,289.715C685.73,291.95 683.881,295.56 683.881,299.371L683.881,520.651ZM1004.04,549.493L655.036,549.493L655.036,299.371C655.036,286.33 661.348,273.98 671.924,266.335L805.67,169.701C819.946,159.386 839.128,159.379 853.411,169.701L987.157,266.335C997.732,273.976 1004.04,286.327 1004.04,299.371L1004.04,549.493Z" style="fill:rgb(35,31,32);fill-rule:nonzero;"/>
    </g>
    <g transform="matrix(4.166667,0,0,4.166667,0,-317.591667)">
        <path d="M881.323,294.291L881.323,347.431L934.46,347.431C934.46,318.083 910.671,294.291 881.323,294.291" style="fill:rgb(237,24,70);fill-rule:nonzero;"/>
    </g>
    <g transform="matrix(4.166667,0,0,4.166667,0,230.2875)">
        <path d="M802.972,255.114C802.972,276.751 820.512,294.291 842.146,294.291C863.783,294.291 881.32,276.751 881.32,255.114L881.32,215.94L842.146,215.94C820.512,215.94 802.972,233.48 802.972,255.114" style="fill:rgb(237,24,70);fill-rule:nonzero;"/>
    </g>
    <g transform="matrix(4.166667,0,0,4.166667,0,-869.566667)">
        <path d="M801.986,347.431L764.291,347.431C742.381,347.431 724.621,365.191 724.621,387.098C724.621,409.005 742.381,426.765 764.291,426.765L881.32,426.765C881.32,382.951 845.8,347.431 801.986,347.431" style="fill:rgb(237,24,70);fill-rule:nonzero;"/>
    </g>
    <g transform="matrix(0,-4.166667,-4.166667,0,4939.689583,4580.79375)">
        <path d="M859.708,312.533C867.043,312.533 872.992,318.479 872.992,325.817C872.992,333.155 867.043,339.103 859.708,339.103C852.37,339.103 846.425,333.155 846.425,325.817C846.425,318.479 852.37,312.533 859.708,312.533" style="fill:rgb(237,24,70);fill-rule:nonzero;"/>
    </g>
    <g transform="matrix(4.166667,0,0,4.166667,0,-132.9125)">
        <path d="M208.322,235.455L188.36,259.018C178.018,251.327 166.716,244.592 145.555,243.866C112.37,243.866 92.645,267.918 91.929,298.698C92.645,329.238 112.37,353.29 145.555,353.29C166.716,352.564 178.018,346.072 188.36,338.138L208.322,361.95C191.481,379.737 170.563,388.877 144.116,388.877C90.727,388.877 54.171,354.253 54.171,298.698C54.171,242.91 90.727,208.522 144.116,208.522C170.563,208.522 191.481,217.419 208.322,235.455" style="fill:rgb(35,31,32);fill-rule:nonzero;"/>
    </g>
    <g transform="matrix(4.166667,0,0,4.166667,0,97.5375)">
        <path d="M246.27,271.765C246.27,288.359 255.17,304.954 275.131,304.954C283.792,304.954 293.404,300.627 301.102,295.337L301.102,242.674C294.847,239.066 287.149,236.898 279.941,236.898C259.014,236.898 246.27,252.05 246.27,271.765M318.655,211.407L337.658,211.407L337.658,289.562C337.658,298.462 340.059,305.437 352.324,305.19L352.324,329.968C330.68,334.771 314.082,329.002 306.391,315.532L305.672,315.532C293.165,327.074 277.05,333.326 261.422,331.887C228.959,329.968 211.642,302.785 211.642,272.251C211.642,237.621 233.286,210.445 267.434,208.523C283.065,207.32 298.694,213.096 309.519,222.472L310.238,222.472L318.655,211.407Z" style="fill:rgb(35,31,32);fill-rule:nonzero;"/>
    </g>
    <g transform="matrix(4.166667,0,0,4.166667,0,101.55)">
        <path d="M367.066,317.457L380.049,294.371C392.074,302.065 410.593,306.392 419.733,306.392C427.427,306.152 436.084,303.747 435.837,295.327C434.399,277.54 371.632,289.078 367.545,248.439C364.901,222.222 387.987,207.32 413.957,206.114C430.788,205.638 449.307,208.759 466.141,219.824L454.12,243.389C444.258,237.374 426.461,233.767 416.845,234.253C408.428,234.729 401.21,238.576 401.457,245.554C402.659,261.902 465.902,251.563 471.431,289.561C475.764,318.413 450.513,332.123 426.701,333.565C401.21,335.49 376.922,327.313 367.066,317.457" style="fill:rgb(35,31,32);fill-rule:nonzero;"/>
    </g>
    <g transform="matrix(4.166667,0,0,4.166667,0,97.5375)">
        <path d="M514.938,271.765C514.938,288.359 523.835,304.954 543.796,304.954C552.457,304.954 562.069,300.627 569.767,295.337L569.767,242.674C563.515,239.066 555.817,236.898 548.606,236.898C527.682,236.898 514.938,252.05 514.938,271.765M587.324,211.407L606.326,211.407L606.326,289.562C606.326,298.462 608.728,305.437 620.988,305.19L620.988,329.968C599.345,334.771 582.751,329.002 575.056,315.532L574.34,315.532C561.833,327.074 545.718,333.326 530.09,331.887C497.628,329.968 480.311,302.785 480.311,272.251C480.311,237.621 501.955,210.445 536.106,208.523C551.734,207.32 567.362,213.096 578.187,222.472L578.903,222.472L587.324,211.407Z" style="fill:rgb(35,31,32);fill-rule:nonzero;"/>
    </g>
    <g transform="matrix(4.166667,0,0,4.166667,0,-1216.125)">
        <path d="M1058.06,437.856C1058.06,444.535 1061.61,450.28 1069.3,450.28C1072.59,450.28 1075.38,448.841 1077.5,446.983L1077.5,427.377C1075.38,426.022 1072.76,425.262 1070.4,425.262C1062.45,425.262 1058.06,430.585 1058.06,437.856M1090.34,397.54L1090.34,458.221L1083.66,458.221L1080.96,453.238C1077.58,457.042 1072.51,459.83 1065.66,459.83C1053.15,459.83 1045.04,450.363 1045.04,438.023C1045.04,425.436 1052.9,415.29 1066.68,415.29C1070.82,415.29 1074.54,416.642 1077.5,418.587L1077.5,397.54L1090.34,397.54Z" style="fill:rgb(237,24,70);fill-rule:nonzero;"/>
    </g>
    <g transform="matrix(4.166667,0,0,4.166667,0,-1142.154167)">
        <path d="M1121.6,406.074C1113.74,406.074 1111.2,411.227 1111.03,416.046C1118.97,416.386 1129.29,416.722 1129.29,411.65C1129.29,408.692 1127.26,406.074 1121.6,406.074M1139.34,436.584C1133.93,439.965 1128.02,441.907 1121.85,442.077C1105.2,442.5 1098.52,431.341 1098.52,420.103C1098.52,406.327 1107.14,397.117 1121.42,397.117C1133.93,397.117 1140.78,403.705 1139.85,412.156C1138.41,424.666 1120.66,424.327 1111.28,423.82C1112.47,434.639 1126.41,433.623 1136.05,429.23L1139.34,436.584Z" style="fill:rgb(237,24,70);fill-rule:nonzero;"/>
    </g>
    <g transform="matrix(4.166667,0,0,4.166667,0,-1213.308333)">
        <path d="M1170.94,457.718C1160.37,459.83 1150.06,456.619 1150.06,443.938L1150.06,396.864L1162.9,396.864L1162.9,441.49C1162.9,447.069 1165.61,448.338 1170.94,448.338L1170.94,457.718Z" style="fill:rgb(237,24,70);fill-rule:nonzero;"/>
    </g>
    <g transform="matrix(4.166667,0,0,4.166667,0,-131.925)">
        <path d="M1111.89,301.832C1137.62,301.832 1150.61,284.998 1150.13,268.883C1149.89,253.978 1138.1,240.271 1113.58,240.271L1081.59,240.271L1081.59,301.832L1111.89,301.832ZM1045.04,384.55L1045.04,212.612L1115.26,212.612C1161.67,212.612 1182.59,238.826 1183.07,267.681C1183.56,298.701 1162.88,330.683 1111.89,330.683L1081.59,330.683L1081.59,384.55L1045.04,384.55Z" style="fill:rgb(35,31,32);fill-rule:nonzero;"/>
    </g>
    <g transform="matrix(4.166667,0,0,4.166667,0,94.541667)">
        <path d="M1246.77,234.733C1229.21,234.733 1221.27,251.087 1221.27,272.484C1221.27,294.368 1230.17,307.838 1247.48,307.838C1264.8,307.838 1272.97,293.412 1272.97,272.484C1272.97,249.884 1264.8,234.733 1246.77,234.733M1247.24,208.039C1283.56,208.039 1309.77,231.851 1309.77,272.724C1309.77,312.401 1282.6,334.771 1247.24,334.771C1211.66,334.771 1184.48,312.401 1184.48,272.724C1184.48,231.851 1210.7,208.039 1247.24,208.039" style="fill:rgb(35,31,32);fill-rule:nonzero;"/>
    </g>
    <g transform="matrix(4.166667,0,0,4.166667,0,-107.879167)">
        <path d="M1385.78,379.265C1355.73,385.27 1326.39,376.134 1326.39,340.061L1326.39,206.121L1362.94,206.121L1362.94,333.093C1362.94,348.961 1370.63,352.568 1385.78,352.568L1385.78,379.265Z" style="fill:rgb(35,31,32);fill-rule:nonzero;"/>
    </g>
    <g transform="matrix(4.166667,0,0,4.166667,0,-107.879167)">
        <path d="M1458.21,379.265C1428.16,385.27 1398.82,376.134 1398.82,340.061L1398.82,206.121L1435.37,206.121L1435.37,333.093C1435.37,348.961 1443.06,352.568 1458.21,352.568L1458.21,379.265Z" style="fill:rgb(35,31,32);fill-rule:nonzero;"/>
    </g>
    <g transform="matrix(4.166667,0,0,4.166667,0,94.541667)">
        <path d="M1528.78,234.733C1511.22,234.733 1503.29,251.087 1503.29,272.484C1503.29,294.368 1512.19,307.838 1529.5,307.838C1546.82,307.838 1554.99,293.412 1554.99,272.484C1554.99,249.884 1546.82,234.733 1528.78,234.733M1529.26,208.039C1565.58,208.039 1591.79,231.851 1591.79,272.724C1591.79,312.401 1564.61,334.771 1529.26,334.771C1493.67,334.771 1466.5,312.401 1466.5,272.724C1466.5,231.851 1492.71,208.039 1529.26,208.039" style="fill:rgb(35,31,32);fill-rule:nonzero;"/>
    </g>
    <g transform="matrix(4.166667,0,0,4.166667,0,1850.548333)">
        <path d="M461.125,100.441L414.956,100.441L428.949,20.927L474.885,20.927L473.779,27.686L435.301,27.686L430.288,56.194L466.841,56.194L465.615,62.839L429.063,62.839L423.643,93.736L462.234,93.736L461.125,100.441Z" style="fill:rgb(35,31,32);fill-rule:nonzero;"/>
    </g>
    <g transform="matrix(4.166667,0,0,4.166667,0,1837.67625)">
        <path d="M495.18,20.927L502.584,20.927L488.008,103.531L480.604,103.531L495.18,20.927Z" style="fill:rgb(35,31,32);fill-rule:nonzero;"/>
    </g>
    <g transform="matrix(4.166667,0,0,4.166667,0,1850.555417)">
        <path d="M559.308,27.685L553.246,62.139L570.267,62.139C584.902,62.139 591.604,55.374 592.826,46.224C593.063,44.942 593.179,42.96 593.179,41.794C593.179,34.1 588.689,27.685 576.915,27.685L559.308,27.685ZM539.02,100.44L553.013,20.927L578.254,20.927C592.886,20.927 600.757,29.843 600.757,41.095C600.757,42.377 600.584,44.592 600.347,46.224C598.309,61.09 587.873,68.784 569.277,68.784L552.08,68.784L546.481,100.44L539.02,100.44Z" style="fill:rgb(35,31,32);fill-rule:nonzero;"/>
    </g>
    <g transform="matrix(4.166667,0,0,4.166667,0,1928.520417)">
        <path d="M617.318,51.939C616.971,53.861 616.678,55.846 616.678,58.407C616.678,68.959 623.21,76.187 633.816,76.187C643.611,76.187 650.373,69.426 652.472,57.478L653.814,49.724C654.164,47.799 654.22,44.884 654.22,43.835C654.22,33.689 647.692,26.465 637.2,26.465C628.34,26.465 620.935,31.827 618.66,44.594L617.318,51.939ZM611.549,43.135C614.174,27.86 624.726,19.936 637.433,19.936C651.189,19.936 661.625,28.386 661.625,43.955C661.625,45.76 661.388,48.501 660.982,50.946L659.466,59.343C656.788,74.209 647.575,82.719 632.999,82.719C619.593,82.719 609.45,74.089 609.45,59.46C609.45,56.722 609.624,54.037 610.09,51.472L611.549,43.135Z" style="fill:rgb(35,31,32);fill-rule:nonzero;"/>
    </g>
    <g transform="matrix(4.166667,0,0,4.166667,0,1837.67625)">
        <path d="M689.437,20.927L696.842,20.927L682.266,103.531L674.861,103.531L689.437,20.927Z" style="fill:rgb(35,31,32);fill-rule:nonzero;"/>
    </g>
    <g transform="matrix(4.166667,0,0,4.166667,0,1837.67625)">
        <path d="M720.687,20.927L728.091,20.927L713.516,103.531L706.111,103.531L720.687,20.927Z" style="fill:rgb(35,31,32);fill-rule:nonzero;"/>
    </g>
    <g transform="matrix(4.166667,0,0,4.166667,0,1928.520417)">
        <path d="M745.405,51.939C745.059,53.861 744.766,55.846 744.766,58.407C744.766,68.959 751.297,76.187 761.903,76.187C771.699,76.187 778.46,69.426 780.559,57.478L781.901,49.724C782.251,47.799 782.307,44.884 782.307,43.835C782.307,33.689 775.779,26.465 765.287,26.465C756.427,26.465 749.022,31.827 746.747,44.594L745.405,51.939ZM739.636,43.135C742.261,27.86 752.813,19.936 765.52,19.936C779.276,19.936 789.712,28.386 789.712,43.955C789.712,45.76 789.475,48.501 789.069,50.946L787.553,59.343C784.875,74.209 775.662,82.719 761.087,82.719C747.68,82.719 737.538,74.089 737.538,59.46C737.538,56.722 737.711,54.037 738.177,51.472L739.636,43.135Z" style="fill:rgb(35,31,32);fill-rule:nonzero;"/>
    </g>
    <g transform="matrix(4.166667,0,0,4.166667,0,1841.565)">
        <path d="M858.217,47.157C848.654,47.157 841.836,53.918 839.734,64.993L837.989,74.15C837.812,75.429 837.636,77.704 837.636,79.689C837.636,90.471 844.051,96.886 853.96,96.886C864.392,96.886 871.157,88.895 872.966,78.813L874.775,68.494C875.064,66.922 875.121,65.693 875.121,65.113C875.121,53.512 866.844,47.157 858.217,47.157M876.753,54.155L877.336,54.155L883.225,19.993L890.686,19.993L876.174,102.598L868.882,102.598L870.691,92.22L870.108,92.22C868.419,96.65 862.824,103.531 851.918,103.531C839.328,103.531 830.235,94.611 830.235,80.911C830.235,78.93 830.351,75.898 830.814,73.507L832.859,62.432C835.248,49.255 844.517,40.805 857.924,40.805C868.359,40.805 875.414,47.743 876.753,54.155" style="fill:rgb(35,31,32);fill-rule:nonzero;"/>
    </g>
    <g transform="matrix(4.166667,0,0,4.166667,0,1928.523333)">
        <path d="M941.878,44.359C943.16,34.277 937.971,26.229 927.072,26.229C918.092,26.229 911.037,32.062 908.706,42.903C908.646,43.253 907.946,46.457 907.89,46.807L941.528,46.807C941.644,46.341 941.878,45.059 941.878,44.359M898.97,59.924C898.97,56.72 899.439,53.162 899.846,51.004L901.301,42.96C903.693,29.26 913.019,19.934 927.362,19.934C944.033,19.934 950.275,32.468 948.872,44.592C948.872,45.118 947.823,51.414 947.53,52.813L906.724,52.813C906.314,54.678 906.084,57.066 906.084,59.165C906.084,68.318 910.744,76.129 922.289,76.129C930.976,76.129 936.455,71.642 937.621,67.268L944.969,67.268C943.683,74.44 935.462,82.72 921.883,82.72C908.529,82.72 898.97,74.79 898.97,59.924" style="fill:rgb(35,31,32);fill-rule:nonzero;"/>
    </g>
    <g transform="matrix(4.166667,0,0,4.166667,0,1850.555833)">
        <path d="M999.774,63.071C999.368,65.053 999.015,69.483 999.015,72.048C999.015,87.846 1008.52,95.194 1021.05,95.194C1033.06,95.194 1040.23,88.256 1041.92,80.092L1049.39,80.092C1049.33,80.621 1049.09,81.844 1048.97,82.307C1046.94,92.336 1037.2,102.132 1020.53,102.132C1004.44,102.132 991.437,92.453 991.437,72.341C991.437,69.716 991.67,65.639 992.08,63.421L994.821,48.905C998.375,30.016 1010.39,19.235 1026.77,19.235C1045.07,19.235 1054.57,31.532 1054.57,42.493C1054.57,43.136 1054.52,44.299 1054.4,44.768L1047.11,44.768C1047.17,44.299 1047.23,43.483 1047.17,42.783C1046.7,36.022 1040.87,26.172 1026.53,26.172C1013.01,26.172 1005.02,35.792 1002.28,50.071L999.774,63.071Z" style="fill:rgb(35,31,32);fill-rule:nonzero;"/>
    </g>
    <g transform="matrix(4.166667,0,0,4.166667,0,1928.5175)">
        <path d="M1082.86,76.306C1091.94,76.306 1099.94,70.3 1101.51,61.617L1103.14,52.873L1086.47,52.873C1075.92,52.873 1070.2,58.119 1070.2,65.231C1070.2,71.992 1075.28,76.306 1082.86,76.306M1062.74,66.047C1062.74,65.287 1062.74,64.355 1062.8,63.479C1063.85,53.28 1072.13,46.691 1087.17,46.691L1104.43,46.691L1105.13,42.205C1105.29,41.329 1105.47,39.873 1105.47,38.531C1105.47,31.886 1100.98,26.347 1091.31,26.347C1082.74,26.347 1078.25,30.43 1077.02,34.451L1069.79,34.451C1071.25,26.407 1079.18,19.935 1091.83,19.935C1104.77,19.935 1112.59,26.756 1112.59,37.831C1112.59,40.806 1112.06,43.953 1111.59,46.518L1105.41,81.728L1098.19,81.728L1099.64,73.275L1099.12,73.215C1097.13,77.182 1090.96,82.721 1081.16,82.721C1071.02,82.721 1062.8,76.482 1062.74,66.047" style="fill:rgb(35,31,32);fill-rule:nonzero;"/>
    </g>
    <g transform="matrix(4.166667,0,0,4.166667,0,1928.270833)">
        <path d="M1153.28,19.878C1166.28,19.878 1174.45,27.575 1174.45,36.259C1174.45,36.492 1174.45,37.368 1174.39,37.541L1167.39,37.541L1167.39,36.725C1167.39,31.246 1161.97,25.94 1153.17,25.94C1145.18,25.94 1139.58,30.137 1139.58,36.199C1139.58,42.964 1145.94,45.179 1153.22,47.567C1162.67,50.658 1170.3,54.095 1170.3,64.707C1170.3,76.599 1160.86,82.837 1147.68,82.837C1134.45,82.837 1124.72,75.26 1124.72,65.64C1124.72,65.29 1124.72,64.824 1124.77,64.648L1131.89,64.648C1131.89,65.054 1131.89,65.523 1131.95,65.93C1132.65,71.935 1139.41,76.425 1148.15,76.425C1156.84,76.425 1162.96,72.345 1162.96,65.29C1162.96,58.179 1156.72,56.137 1149.61,53.862C1142.44,51.534 1132.24,48.033 1132.24,37.075C1132.24,26.523 1140.28,19.878 1153.28,19.878" style="fill:rgb(35,31,32);fill-rule:nonzero;"/>
    </g>
    <g transform="matrix(4.166667,0,0,4.166667,0,1928.5175)">
        <path d="M1204.94,76.306C1214.03,76.306 1222.02,70.3 1223.6,61.617L1225.22,52.873L1208.55,52.873C1198,52.873 1192.29,58.119 1192.29,65.231C1192.29,71.992 1197.36,76.306 1204.94,76.306M1184.83,66.047C1184.83,65.287 1184.83,64.355 1184.89,63.479C1185.93,53.28 1194.21,46.691 1209.25,46.691L1226.51,46.691L1227.21,42.205C1227.38,41.329 1227.56,39.873 1227.56,38.531C1227.56,31.886 1223.07,26.347 1213.39,26.347C1204.82,26.347 1200.33,30.43 1199.11,34.451L1191.88,34.451C1193.34,26.407 1201.27,19.935 1213.92,19.935C1226.86,19.935 1234.67,26.756 1234.67,37.831C1234.67,40.806 1234.14,43.953 1233.68,46.518L1227.5,81.728L1220.27,81.728L1221.73,73.275L1221.2,73.215C1219.22,77.182 1213.04,82.721 1203.25,82.721C1193.1,82.721 1184.89,76.482 1184.83,66.047" style="fill:rgb(35,31,32);fill-rule:nonzero;"/>
    </g>
</svg>
